<?xml version="1.0" encoding="UTF-8" standalone="no"?>
<!DOCTYPE svg PUBLIC "-//W3C//DTD SVG 1.1//EN"
 "http://www.w3.org/Graphics/SVG/1.1/DTD/svg11.dtd">
<!-- Generated by graphviz version 8.1.0 (20230707.0739)
 -->
<!-- Title: G Pages: 1 -->
<svg width="470pt" height="151pt"
 viewBox="0.00 0.00 470.20 150.95" xmlns="http://www.w3.org/2000/svg" xmlns:xlink="http://www.w3.org/1999/xlink">
<g id="graph0" class="graph" transform="scale(1 1) rotate(0) translate(21.6 129.35)">
<title>G</title>
<polygon fill="#111111" stroke="none" points="-21.6,21.6 -21.6,-129.35 448.6,-129.35 448.6,21.6 -21.6,21.6"/>
<!-- App.tsx -->
<g id="node1" class="node">
<title>App.tsx</title>
<path fill="none" stroke="#c6c5fe" d="M161.71,-65.75C161.71,-65.75 116.54,-65.75 116.54,-65.75 112.58,-65.75 108.62,-61.79 108.62,-57.83 108.62,-57.83 108.62,-49.92 108.62,-49.92 108.62,-45.96 112.58,-42 116.54,-42 116.54,-42 161.71,-42 161.71,-42 165.67,-42 169.62,-45.96 169.62,-49.92 169.62,-49.92 169.62,-57.83 169.62,-57.83 169.62,-61.79 165.67,-65.75 161.71,-65.75"/>
<text text-anchor="middle" x="139.12" y="-48.45" font-family="Arial" font-size="14.00" fill="#c6c5fe">App.tsx</text>
</g>
<!-- index.ts -->
<g id="node2" class="node">
<title>index.ts</title>
<path fill="none" stroke="#ff6c60" d="M265.83,-65.75C265.83,-65.75 219.17,-65.75 219.17,-65.75 215.21,-65.75 211.25,-61.79 211.25,-57.83 211.25,-57.83 211.25,-49.92 211.25,-49.92 211.25,-45.96 215.21,-42 219.17,-42 219.17,-42 265.83,-42 265.83,-42 269.79,-42 273.75,-45.96 273.75,-49.92 273.75,-49.92 273.75,-57.83 273.75,-57.83 273.75,-61.79 269.79,-65.75 265.83,-65.75"/>
<text text-anchor="middle" x="242.5" y="-48.45" font-family="Arial" font-size="14.00" fill="#ff6c60">index.ts</text>
</g>
<!-- App.tsx&#45;&gt;index.ts -->
<g id="edge1" class="edge">
<title>App.tsx&#45;&gt;index.ts</title>
<path fill="none" stroke="#757575" d="M169.99,-53.88C179.33,-53.88 189.8,-53.88 199.8,-53.88"/>
<polygon fill="#757575" stroke="#757575" points="199.79,-57.38 209.79,-53.88 199.79,-50.38 199.79,-57.38"/>
</g>
<!-- ComponentA.tsx -->
<g id="node3" class="node">
<title>ComponentA.tsx</title>
<path fill="none" stroke="#cfffac" d="M418.71,-107.75C418.71,-107.75 318.04,-107.75 318.04,-107.75 314.08,-107.75 310.12,-103.79 310.12,-99.83 310.12,-99.83 310.12,-91.92 310.12,-91.92 310.12,-87.96 314.08,-84 318.04,-84 318.04,-84 418.71,-84 418.71,-84 422.67,-84 426.62,-87.96 426.62,-91.92 426.62,-91.92 426.62,-99.83 426.62,-99.83 426.62,-103.79 422.67,-107.75 418.71,-107.75"/>
<text text-anchor="middle" x="368.38" y="-90.45" font-family="Arial" font-size="14.00" fill="#cfffac">ComponentA.tsx</text>
</g>
<!-- index.ts&#45;&gt;ComponentA.tsx -->
<g id="edge4" class="edge">
<title>index.ts&#45;&gt;ComponentA.tsx</title>
<path fill="none" stroke="#757575" d="M274.12,-64.26C288.23,-69.04 305.27,-74.82 320.91,-80.12"/>
<polygon fill="#757575" stroke="#757575" points="319.35,-83.63 329.94,-83.52 321.59,-77 319.35,-83.63"/>
</g>
<!-- ComponentB.tsx -->
<g id="node4" class="node">
<title>ComponentB.tsx</title>
<path fill="none" stroke="#ff6c60" d="M418.71,-65.75C418.71,-65.75 318.04,-65.75 318.04,-65.75 314.08,-65.75 310.12,-61.79 310.12,-57.83 310.12,-57.83 310.12,-49.92 310.12,-49.92 310.12,-45.96 314.08,-42 318.04,-42 318.04,-42 418.71,-42 418.71,-42 422.67,-42 426.62,-45.96 426.62,-49.92 426.62,-49.92 426.62,-57.83 426.62,-57.83 426.62,-61.79 422.67,-65.75 418.71,-65.75"/>
<text text-anchor="middle" x="368.38" y="-48.45" font-family="Arial" font-size="14.00" fill="#ff6c60">ComponentB.tsx</text>
</g>
<!-- index.ts&#45;&gt;ComponentB.tsx -->
<g id="edge5" class="edge">
<title>index.ts&#45;&gt;ComponentB.tsx</title>
<path fill="none" stroke="#757575" d="M274.12,-47.96C281.86,-47.51 290.49,-47.24 299.29,-47.15"/>
<polygon fill="#757575" stroke="#757575" points="299.05,-50.65 309.05,-47.14 299.05,-43.65 299.05,-50.65"/>
</g>
<!-- ComponentC.tsx -->
<g id="node5" class="node">
<title>ComponentC.tsx</title>
<path fill="none" stroke="#ff6c60" d="M419.08,-23.75C419.08,-23.75 317.67,-23.75 317.67,-23.75 313.71,-23.75 309.75,-19.79 309.75,-15.83 309.75,-15.83 309.75,-7.92 309.75,-7.92 309.75,-3.96 313.71,0 317.67,0 317.67,0 419.08,0 419.08,0 423.04,0 427,-3.96 427,-7.92 427,-7.92 427,-15.83 427,-15.83 427,-19.79 423.04,-23.75 419.08,-23.75"/>
<text text-anchor="middle" x="368.38" y="-6.45" font-family="Arial" font-size="14.00" fill="#ff6c60">ComponentC.tsx</text>
</g>
<!-- index.ts&#45;&gt;ComponentC.tsx -->
<g id="edge6" class="edge">
<title>index.ts&#45;&gt;ComponentC.tsx</title>
<path fill="none" stroke="#757575" d="M264.51,-41.53C274.8,-37.12 287.81,-32.21 301.09,-27.61"/>
<polygon fill="#757575" stroke="#757575" points="301.9,-30.7 310.26,-24.18 299.66,-24.06 301.9,-30.7"/>
</g>
<!-- ComponentB.tsx&#45;&gt;index.ts -->
<g id="edge2" class="edge">
<title>ComponentB.tsx&#45;&gt;index.ts</title>
<path fill="none" stroke="#757575" d="M310.05,-60.61C301.62,-60.67 293.09,-60.56 285.06,-60.29"/>
<polygon fill="#757575" stroke="#757575" points="285.27,-56.75 275.12,-59.79 284.95,-63.74 285.27,-56.75"/>
</g>
<!-- ComponentC.tsx&#45;&gt;index.ts -->
<g id="edge3" class="edge">
<title>ComponentC.tsx&#45;&gt;index.ts</title>
<path fill="none" stroke="#757575" d="M346.42,-24.19C329.54,-31.43 305.29,-40.05 284.58,-46.35"/>
<polygon fill="#757575" stroke="#757575" points="283.73,-43.24 275.12,-49.41 285.7,-49.96 283.73,-43.24"/>
</g>
<!-- index.css -->
<g id="node6" class="node">
<title>index.css</title>
<path fill="none" stroke="#cfffac" d="M167.33,-23.75C167.33,-23.75 110.92,-23.75 110.92,-23.75 106.96,-23.75 103,-19.79 103,-15.83 103,-15.83 103,-7.92 103,-7.92 103,-3.96 106.96,0 110.92,0 110.92,0 167.33,0 167.33,0 171.29,0 175.25,-3.96 175.25,-7.92 175.25,-7.92 175.25,-15.83 175.25,-15.83 175.25,-19.79 171.29,-23.75 167.33,-23.75"/>
<text text-anchor="middle" x="139.12" y="-6.45" font-family="Arial" font-size="14.00" fill="#cfffac">index.css</text>
</g>
<!-- main.tsx -->
<g id="node7" class="node">
<title>main.tsx</title>
<path fill="none" stroke="#c6c5fe" d="M59.08,-44.75C59.08,-44.75 7.92,-44.75 7.92,-44.75 3.96,-44.75 0,-40.79 0,-36.83 0,-36.83 0,-28.92 0,-28.92 0,-24.96 3.96,-21 7.92,-21 7.92,-21 59.08,-21 59.08,-21 63.04,-21 67,-24.96 67,-28.92 67,-28.92 67,-36.83 67,-36.83 67,-40.79 63.04,-44.75 59.08,-44.75"/>
<text text-anchor="middle" x="33.5" y="-27.45" font-family="Arial" font-size="14.00" fill="#c6c5fe">main.tsx</text>
</g>
<!-- main.tsx&#45;&gt;App.tsx -->
<g id="edge7" class="edge">
<title>main.tsx&#45;&gt;App.tsx</title>
<path fill="none" stroke="#757575" d="M67.29,-39.52C76.95,-41.48 87.65,-43.65 97.73,-45.69"/>
<polygon fill="#757575" stroke="#757575" points="96.86,-49.29 107.36,-47.84 98.26,-42.43 96.86,-49.29"/>
</g>
<!-- main.tsx&#45;&gt;index.css -->
<g id="edge8" class="edge">
<title>main.tsx&#45;&gt;index.css</title>
<path fill="none" stroke="#757575" d="M67.29,-26.23C75.12,-24.64 83.63,-22.92 91.94,-21.23"/>
<polygon fill="#757575" stroke="#757575" points="92.57,-24.47 101.68,-19.06 91.18,-17.61 92.57,-24.47"/>
</g>
</g>
</svg>
